<?xml version="1.0" standalone="no"?>
<!DOCTYPE svg PUBLIC "-//W3C//DTD SVG 20010904//EN"
 "http://www.w3.org/TR/2001/REC-SVG-20010904/DTD/svg10.dtd">
<svg version="1.0" xmlns="http://www.w3.org/2000/svg"
 width="200.000000pt" height="200.000000pt" viewBox="0 0 200.000000 200.000000"
 preserveAspectRatio="xMidYMid meet">
<metadata>
Created by potrace 1.10, written by Peter Selinger 2001-2011
</metadata>
<g transform="translate(0.000000,200.000000) scale(0.100000,-0.100000)"
fill="#000000" stroke="none">
<path d="M1005 1803 c5 -10 10 -48 13 -84 4 -59 2 -68 -21 -94 l-25 -29 -7 34
c-13 61 -45 94 -45 47 0 -13 -20 -49 -44 -81 -73 -93 -73 -187 -1 -264 l34
-37 -6 36 c-5 36 9 79 27 79 6 0 10 -6 10 -14 0 -7 7 -19 15 -26 13 -11 15 -8
15 14 0 16 12 39 31 58 19 20 28 39 25 51 -3 11 0 17 7 14 16 -5 21 -67 8 -80
-28 -28 5 -81 35 -56 8 7 13 21 11 31 -6 22 -3 23 17 2 21 -20 20 -73 -1 -104
l-18 -25 35 22 c44 27 96 110 104 167 15 98 -28 189 -135 290 -69 66 -98 83
-84 49z"/>
<path d="M280 1281 c0 -6 6 -11 13 -11 7 0 48 -30 92 -66 132 -109 148 -114
358 -114 l177 0 0 -173 c0 -198 3 -207 77 -207 69 0 73 11 73 208 l0 172 178
0 c166 0 180 2 227 24 28 13 75 45 105 71 30 27 75 61 100 77 l45 30 -90 -7
c-49 -4 -116 -15 -148 -26 -53 -18 -90 -19 -492 -19 -402 0 -439 1 -492 19
-69 23 -223 38 -223 22z"/>
<path d="M686 1009 c16 -18 20 -42 24 -173 6 -165 14 -191 74 -254 58 -62 99
-77 211 -77 112 0 142 11 208 73 59 58 77 119 77 271 0 115 2 131 21 155 l20
26 -95 0 -96 0 0 -140 c0 -159 -11 -199 -59 -224 -38 -20 -113 -20 -151 -1
-52 27 -60 58 -60 220 l0 145 -97 0 -96 0 19 -21z"/>
<path d="M925 418 c8 -46 34 -111 57 -142 14 -18 16 -17 37 18 21 33 51 123
51 154 0 8 -22 12 -76 12 l-76 0 7 -42z"/>
</g>
</svg>
